HIERARCHY
ROOT joint_Root
{
	OFFSET 0.0 0.0 0.0
	CHANNELS 6 Xposition Yposition Zposition Zrotation Xrotation Yrotation 
	JOINT Hips
	{
		OFFSET 4.5925 91.4895 -427.239
		CHANNELS 6 Xposition Yposition Zposition Zrotation Xrotation Yrotation 
		JOINT Spine
		{
			OFFSET 15.7357 0.0 0.0
			CHANNELS 6 Xposition Yposition Zposition Zrotation Xrotation Yrotation 
			JOINT Chest
			{
				OFFSET 8.98455 -0.406207 0.0
				CHANNELS 6 Xposition Yposition Zposition Zrotation Xrotation Yrotation 
				JOINT Neck
				{
					OFFSET 16.3773 0.0 0.0
					CHANNELS 6 Xposition Yposition Zposition Zrotation Xrotation Yrotation 
					JOINT Head
					{
						OFFSET 6.45672 0.0 0.0
						CHANNELS 6 Xposition Yposition Zposition Zrotation Xrotation Yrotation 
						End Site
						{
							OFFSET 0.0 0.0 0.0
						}
					}
				}
				JOINT Shoulder_L
				{
					OFFSET 12.9942 -0.242716 4.98039
					CHANNELS 6 Xposition Yposition Zposition Zrotation Xrotation Yrotation 
					JOINT UpperArm_L
					{
						OFFSET 5.34809 0.0 0.0
						CHANNELS 6 Xposition Yposition Zposition Zrotation Xrotation Yrotation 
						JOINT LowerArm_L
						{
							OFFSET 24.3286 1.87007e-05 0.0
							CHANNELS 6 Xposition Yposition Zposition Zrotation Xrotation Yrotation 
							JOINT Hand_L
							{
								OFFSET 22.2916 0.0 0.0
								CHANNELS 6 Xposition Yposition Zposition Zrotation Xrotation Yrotation 
								End Site
								{
									OFFSET 0.0 0.0 0.0
								}
							}
						}
					}
				}
				JOINT Shoulder_R
				{
					OFFSET 12.9945 -0.242716 -4.98039
					CHANNELS 6 Xposition Yposition Zposition Zrotation Xrotation Yrotation 
					JOINT UpperArm_R
					{
						OFFSET -5.34813 0.0 0.0
						CHANNELS 6 Xposition Yposition Zposition Zrotation Xrotation Yrotation 
						JOINT LowerArm_R
						{
							OFFSET -24.3289 0.000322201 0.0
							CHANNELS 6 Xposition Yposition Zposition Zrotation Xrotation Yrotation 
							JOINT Hand_R
							{
								OFFSET -22.2915 -0.000108084 0.0
								CHANNELS 6 Xposition Yposition Zposition Zrotation Xrotation Yrotation 
								End Site
								{
									OFFSET 0.0 0.0 0.0
								}
							}
						}
					}
				}
			}
		}
		JOINT UpperLeg_L
		{
			OFFSET -2.19248 -6.46944 0.0
			CHANNELS 6 Xposition Yposition Zposition Zrotation Xrotation Yrotation 
			JOINT LowerLeg_L
			{
				OFFSET 39.0811 0.0 -1.23785e-05
				CHANNELS 6 Xposition Yposition Zposition Zrotation Xrotation Yrotation 
				JOINT Foot_L
				{
					OFFSET 40.9854 0.0 -1.26872e-05
					CHANNELS 6 Xposition Yposition Zposition Zrotation Xrotation Yrotation 
					JOINT Toes_L
					{
						OFFSET 11.7543 0.0 0.0
						CHANNELS 6 Xposition Yposition Zposition Zrotation Xrotation Yrotation 
						End Site
						{
							OFFSET 0.0 0.0 0.0
						}
					}
				}
			}
		}
		JOINT UpperLeg_R
		{
			OFFSET -2.19251 6.46944 0.0
			CHANNELS 6 Xposition Yposition Zposition Zrotation Xrotation Yrotation 
			JOINT LowerLeg_R
			{
				OFFSET -39.0811 -0.00228153 -0.0401928
				CHANNELS 6 Xposition Yposition Zposition Zrotation Xrotation Yrotation 
				JOINT Foot_R
				{
					OFFSET -40.9854 0.0 0.0
					CHANNELS 6 Xposition Yposition Zposition Zrotation Xrotation Yrotation 
					JOINT Toes_R
					{
						OFFSET -11.7543 0.0 0.0
						CHANNELS 6 Xposition Yposition Zposition Zrotation Xrotation Yrotation 
						End Site
						{
							OFFSET 0.0 0.0 0.0
						}
					}
				}
			}
		}
	}
}
MOTION
Frames:	8
Frame Time:	0.0333333
0.000000 0.000000 0.000000 0.000000 0.000000 -0.000000 0.402447 91.514700 1.859840 89.812100 -1.165070 4.333120 15.735700 0.000005 -0.000001 87.414000 88.018400 -87.944400 8.984550 -0.406207 -0.000000 -3.807290 -0.125163 -1.065460 16.377300 -0.000001 -0.000001 3.143750 -4.695350 3.383380 6.456720 -0.000001 -0.000000 -1.669780 -6.158390 4.068150 12.994200 -0.242716 4.980390 -85.081100 -9.292570 -61.944400 5.348090 -0.000007 -0.000001 -46.959200 -57.401100 -67.796700 24.328600 0.000019 0.000005 4.548800 4.822100 -43.425500 22.291600 -0.000001 0.000005 21.758900 5.104650 5.026730 12.994500 -0.242716 -4.980390 92.986400 -7.400090 -67.950600 -5.348130 -0.000001 -0.000004 -62.991200 -61.487600 -85.428300 -24.328900 0.000322 -0.000009 -16.571800 -14.872800 -49.243400 -22.291500 -0.000108 -0.000004 23.179400 5.239070 1.781970 -2.192480 -6.469440 -0.000000 -177.252000 -11.337400 -2.817540 39.081100 -0.000007 -0.000012 -0.132447 0.270272 26.107300 40.985400 -0.000006 -0.000013 0.912909 4.964440 -69.089100 11.754300 -0.000000 0.000003 -0.000211 -0.001934 -16.650400 -2.192510 6.469440 -0.000001 175.379000 19.667900 177.880000 -39.081100 -0.002282 -0.040193 0.000842 0.005020 26.179600 -40.985400 0.000008 0.000006 5.839880 12.871800 -70.396400 -11.754300 -0.000006 -0.000006 -0.004480 -0.056342 -18.865200
0.000000 0.000000 0.000000 0.000000 0.000000 -0.000000 0.324434 91.544200 1.958090 89.610500 -1.213730 4.051500 15.735700 0.000005 -0.000001 88.660400 88.127100 -89.126000 8.984550 -0.406207 -0.000000 -4.021190 -0.039646 -0.932892 16.377300 -0.000001 -0.000001 3.386630 -4.889330 3.723730 6.456720 -0.000001 -0.000000 -1.307090 -6.386800 4.508490 12.994200 -0.242716 4.980390 -84.228100 -10.397300 -60.748400 5.348090 -0.000007 -0.000001 -44.966100 -60.555500 -75.217400 24.328600 0.000019 0.000005 6.123270 4.105410 -56.260100 22.291600 -0.000001 0.000005 25.089400 5.217330 2.303640 12.994500 -0.242716 -4.980390 93.647000 -8.586040 -66.881500 -5.348130 -0.000001 -0.000004 -62.271100 -62.766100 -92.060300 -24.328900 0.000322 -0.000009 -13.630900 -8.276750 -59.331500 -22.291500 -0.000108 -0.000004 28.649200 5.435190 -3.923330 -2.192480 -6.469440 -0.000000 -177.094000 -11.034100 -2.987280 39.081100 -0.000007 -0.000012 -0.135076 0.276925 26.002000 40.985400 -0.000006 -0.000013 0.760584 4.615630 -69.088300 11.754300 -0.000000 0.000003 -0.000237 -0.002137 -16.657800 -2.192510 6.469440 -0.000001 175.697000 19.935200 177.809000 -39.081100 -0.002282 -0.040193 0.011727 -0.017342 25.889600 -40.985400 0.000008 0.000006 6.121810 13.093700 -70.354500 -11.754300 -0.000006 -0.000006 -0.004263 -0.054143 -18.775600
0.000000 0.000000 0.000000 0.000000 0.000000 -0.000000 0.288807 91.571200 2.033760 89.488400 -1.410220 3.791270 15.735700 0.000005 -0.000001 89.801400 88.224600 -90.258700 8.984550 -0.406207 -0.000000 -4.214980 0.035485 -0.913753 16.377300 -0.000001 -0.000001 3.727140 -4.936700 4.085990 6.456720 -0.000001 -0.000000 -0.834448 -6.634320 4.986870 12.994200 -0.242716 4.980390 -83.255400 -11.420100 -59.152800 5.348090 -0.000007 -0.000001 -46.106900 -63.512500 -84.421800 24.328600 0.000019 0.000005 10.211800 4.195280 -67.858200 22.291600 -0.000001 0.000005 29.313200 5.311950 -0.209142 12.994500 -0.242716 -4.980390 94.278600 -9.507880 -65.634100 -5.348130 -0.000001 -0.000004 -57.355300 -64.086400 -93.993900 -24.328900 0.000322 -0.000009 -11.799700 -5.128610 -66.836000 -22.291500 -0.000108 -0.000004 37.432100 5.680550 -16.152200 -2.192480 -6.469440 -0.000000 -176.998000 -11.056700 -3.110450 39.081100 -0.000007 -0.000012 -0.137121 0.282879 25.861200 40.985400 -0.000006 -0.000013 0.674928 4.427380 -69.072200 11.754300 -0.000000 0.000003 -0.000240 -0.002156 -16.658400 -2.192510 6.469440 -0.000001 175.822000 20.386400 177.757000 -39.081100 -0.002282 -0.040193 0.010504 -0.015028 25.578000 -40.985400 0.000008 0.000006 6.229390 13.677100 -70.317600 -11.754300 -0.000006 -0.000006 -0.004628 -0.057817 -18.925300
0.000000 0.000000 0.000000 0.000000 0.000000 -0.000000 0.327420 91.599300 2.163270 89.453600 -1.763120 3.539610 15.735700 0.000005 -0.000001 88.341800 88.411600 -88.832300 8.984550 -0.406207 -0.000000 -4.590480 -0.038988 -0.983149 16.377300 -0.000001 -0.000001 4.357670 -4.922680 4.476370 6.456720 -0.000001 -0.000000 -0.408245 -6.343890 5.052580 12.994200 -0.242716 4.980390 -82.230600 -12.334700 -57.434200 5.348090 -0.000007 -0.000001 -49.093700 -63.751600 -92.458100 24.328600 0.000019 0.000005 14.516800 4.464690 -73.267000 22.291600 -0.000001 0.000005 33.085800 5.387600 -2.530750 12.994500 -0.242716 -4.980390 94.704500 -10.057900 -64.769600 -5.348130 -0.000001 -0.000004 -50.280200 -64.111200 -91.010200 -24.328900 0.000322 -0.000009 -9.129740 -3.685300 -68.193400 -22.291500 -0.000108 -0.000004 43.018400 5.664590 -25.627700 -2.192480 -6.469440 -0.000000 -177.024000 -11.206400 -3.089740 39.081100 -0.000007 -0.000012 -0.135928 0.283809 25.591900 40.985400 -0.000006 -0.000013 0.634693 4.239900 -69.066300 11.754300 -0.000000 0.000003 -0.000227 -0.002058 -16.654900 -2.192510 6.469440 -0.000001 175.823000 20.518600 177.676000 -39.081100 -0.002282 -0.040193 0.008934 -0.011870 25.346000 -40.985400 0.000008 0.000006 6.228420 14.203200 -70.243100 -11.754300 -0.000006 -0.000006 -0.004627 -0.057808 -18.925000
0.000000 0.000000 0.000000 0.000000 0.000000 -0.000000 0.325987 91.590700 2.329140 89.435000 -2.023510 3.576390 15.735700 0.000005 -0.000001 84.526800 88.479800 -85.035100 8.984550 -0.406207 -0.000000 -4.740270 -0.234283 -1.027220 16.377300 -0.000001 -0.000001 4.666140 -4.904470 4.416290 6.456720 -0.000001 -0.000000 -0.009456 -6.154570 5.269910 12.994200 -0.242716 4.980390 -82.215000 -12.088000 -56.861300 5.348090 -0.000007 -0.000001 -45.871700 -62.546200 -90.757200 24.328600 0.000019 0.000005 12.303700 4.471500 -70.323300 22.291600 -0.000001 0.000005 32.487900 5.387320 -2.502310 12.994500 -0.242716 -4.980390 94.625300 -9.767670 -64.505100 -5.348130 -0.000001 -0.000004 -41.676400 -62.545400 -82.532400 -24.328900 0.000322 -0.000009 -9.722820 -5.049220 -62.839200 -22.291500 -0.000108 -0.000004 36.331600 5.690700 -20.516700 -2.192480 -6.469440 -0.000000 -176.939000 -11.549500 -2.852540 39.081100 -0.000007 -0.000012 -0.135291 0.283376 25.521200 40.985400 -0.000006 -0.000013 0.635765 4.322830 -69.173600 11.754300 -0.000000 0.000003 -0.000246 -0.002201 -16.660100 -2.192510 6.469440 -0.000001 175.819000 20.267100 177.800000 -39.081100 -0.002282 -0.040193 0.009400 -0.012859 25.337400 -40.985400 0.000008 0.000006 6.274380 14.183900 -70.312300 -11.754300 -0.000006 -0.000006 -0.004651 -0.058052 -18.934900
0.000000 0.000000 0.000000 0.000000 0.000000 -0.000000 0.330867 91.547300 2.407950 89.543100 -2.124700 3.848410 15.735700 0.000005 -0.000001 79.958000 88.269600 -80.444300 8.984550 -0.406207 -0.000000 -4.360580 -0.551540 -0.994169 16.377300 -0.000001 -0.000001 4.225230 -4.940610 3.905190 6.456720 -0.000001 -0.000000 -0.059221 -6.250800 5.411350 12.994200 -0.242716 4.980390 -83.060500 -11.190200 -57.906800 5.348090 -0.000007 -0.000001 -39.234800 -60.963700 -80.242600 24.328600 0.000019 0.000005 10.273600 5.333460 -62.841400 22.291600 -0.000001 0.000005 27.363800 5.304360 -0.009390 12.994500 -0.242716 -4.980390 94.190700 -8.996270 -64.893800 -5.348130 -0.000001 -0.000004 -36.973400 -59.670300 -74.659900 -24.328900 0.000322 -0.000009 -10.807200 -8.962750 -50.795900 -22.291500 -0.000108 -0.000004 27.248300 5.625930 -12.409500 -2.192480 -6.469440 -0.000000 -176.931000 -11.908500 -2.549850 39.081100 -0.000007 -0.000012 -0.135132 0.281462 25.646100 40.985400 -0.000006 -0.000013 0.701003 4.579320 -69.314200 11.754300 -0.000000 0.000003 -0.000225 -0.002042 -16.654300 -2.192510 6.469440 -0.000001 175.638000 19.930400 178.028000 -39.081100 -0.002282 -0.040193 0.010022 -0.014039 25.547900 -40.985400 0.000008 0.000006 6.306620 13.974300 -70.566200 -11.754300 -0.000006 -0.000006 -0.004483 -0.056372 -18.866500
0.000000 0.000000 0.000000 0.000000 0.000000 -0.000000 0.287987 91.526300 2.308370 89.590600 -2.292640 3.970210 15.735700 0.000005 -0.000001 80.173300 87.973600 -80.640600 8.984550 -0.406207 -0.000000 -3.775280 -0.644223 -0.956177 16.377300 -0.000001 -0.000001 2.991840 -5.025600 3.448990 6.456720 -0.000001 -0.000000 -0.106168 -6.676940 5.885800 12.994200 -0.242716 4.980390 -84.286200 -9.961010 -59.955400 5.348090 -0.000007 -0.000001 -32.084900 -58.682300 -66.355600 24.328600 0.000019 0.000005 7.792890 6.140110 -51.972900 22.291600 -0.000001 0.000005 22.466500 5.200740 2.761970 12.994500 -0.242716 -4.980390 93.454300 -7.878720 -66.236400 -5.348130 -0.000001 -0.000004 -35.028600 -57.206000 -66.393200 -24.328900 0.000322 -0.000009 -10.405100 -13.902800 -37.415600 -22.291500 -0.000108 -0.000004 20.572900 5.396310 -2.701980 -2.192480 -6.469440 -0.000000 -176.880000 -12.258000 -2.537780 39.081100 -0.000007 -0.000012 -0.137885 0.285316 25.793300 40.985400 -0.000006 -0.000013 0.718253 4.756160 -69.330900 11.754300 -0.000000 0.000003 -0.000237 -0.002136 -16.657700 -2.192510 6.469440 -0.000001 175.674000 19.536000 177.920000 -39.081100 -0.002282 -0.040193 0.007433 -0.008536 25.781300 -40.985400 0.000008 0.000006 6.298330 13.731600 -70.600900 -11.754300 -0.000006 -0.000006 -0.004190 -0.053407 -18.745700
0.000000 0.000000 0.000000 0.000000 0.000000 -0.000000 0.240720 91.511000 2.171330 89.550700 -2.461320 4.008000 15.735700 0.000005 -0.000001 82.066000 87.668800 -82.465200 8.984550 -0.406207 -0.000000 -3.150420 -0.605252 -0.815119 16.377300 -0.000001 -0.000001 1.744900 -5.058280 3.277610 6.456720 -0.000001 -0.000000 -0.613572 -6.946830 6.137550 12.994200 -0.242716 4.980390 -85.061400 -9.394740 -62.105600 5.348090 -0.000007 -0.000001 -28.774800 -54.913500 -53.268100 24.328600 0.000019 0.000005 3.240220 3.774930 -40.584500 22.291600 -0.000001 0.000005 19.344000 5.050640 6.228400 12.994500 -0.242716 -4.980390 92.596800 -6.577350 -68.402300 -5.348130 -0.000001 -0.000004 -34.502100 -55.726100 -56.744200 -24.328900 0.000322 -0.000009 -11.368300 -21.275800 -28.998900 -22.291500 -0.000108 -0.000004 20.132400 5.048440 6.275830 -2.192480 -6.469440 -0.000000 -176.846000 -12.154100 -2.695780 39.081100 -0.000007 -0.000012 -0.138299 0.283525 26.002600 40.985400 -0.000006 -0.000013 0.646430 4.526650 -69.337000 11.754300 -0.000000 0.000003 -0.000248 -0.002222 -16.660800 -2.192510 6.469440 -0.000001 175.736000 19.619400 177.751000 -39.081100 -0.002282 -0.040193 -0.000100 0.007005 25.957300 -40.985400 0.000008 0.000006 6.339910 13.947900 -70.587500 -11.754300 -0.000006 -0.000006 -0.004165 -0.053148 -18.735100
